<svg xmlns="http://www.w3.org/2000/svg" width="24" height="24" fill="none" xmlns:v="https://vecta.io/nano"><path d="M12 24C5.376 24 0 18.624 0 12S5.376 0 12 0s12 5.376 12 12-5.376 12-12 12z" fill="#1d7dcf"/><g fill="#fff"><path d="M10.547 6.438a1.27 1.27 0 0 1-.101.497 5.88 5.88 0 0 1 1.466-.184c3.133 0 5.621 2.434 5.621 5.375 0 1.91-1.05 3.607-2.644 4.561.398.229.664.648.664 1.126a1.27 1.27 0 0 1-.022.234c2.089-1.192 3.502-3.387 3.502-5.921 0-3.825-3.216-6.875-7.121-6.875a7.4 7.4 0 0 0-1.804.223c.27.24.439.583.439.964zm2.814 12.419a7.39 7.39 0 0 1-1.449.143c-3.905 0-7.121-3.05-7.121-6.875 0-2.337 1.201-4.386 3.027-5.625.027.551.408 1.014.929 1.182-1.488.972-2.456 2.609-2.456 4.443 0 2.941 2.489 5.375 5.621 5.375a5.93 5.93 0 0 0 .972-.08c-.04.124-.062.256-.062.392 0 .426.211.805.539 1.045z"/><path d="M15.5 13.25a.75.75 0 1 0-1.5 0v4.5a.75.75 0 0 0 .75.75h4.5a.75.75 0 1 0 0-1.5H15.5v-3.75zm-6-6.5A.75.75 0 0 0 8.75 6h-4.5a.75.75 0 1 0 0 1.5H8v3.75a.75.75 0 1 0 1.5 0v-4.5z"/></g></svg>